<?xml version="1.0" encoding="utf-8"?>
<!-- Generator: Adobe Illustrator 16.0.4, SVG Export Plug-In . SVG Version: 6.00 Build 0)  -->
<!DOCTYPE svg PUBLIC "-//W3C//DTD SVG 1.1//EN" "http://www.w3.org/Graphics/SVG/1.1/DTD/svg11.dtd">
<svg version="1.1" id="layer1" xmlns="http://www.w3.org/2000/svg" xmlns:xlink="http://www.w3.org/1999/xlink" x="0px" y="0px"
	 width="55.5px" height="56px" viewBox="0 0 55.5 56" enable-background="new 0 0 55.5 56" xml:space="preserve">
<ellipse fill="#8060E5" cx="27.749" cy="28" rx="27.75" ry="28"/>
<path fill="#FFFFFF" d="M47.009,42.427H8.85v-0.464h38.159V42.427z M47.009,38.9H8.85v-0.46h38.159V38.9z"/>
<path fill="#FFFFFF" d="M9.831,21.403c0.218-0.537,0.536-1.002,0.958-1.394c0.421-0.391,0.928-0.696,1.537-0.913
	c0.61-0.218,1.32-0.334,2.133-0.334c0.58,0,1.131,0.058,1.654,0.174c0.523,0.116,0.972,0.333,1.363,0.625
	c0.392,0.304,0.711,0.681,0.943,1.16c0.233,0.479,0.364,1.074,0.377,1.785v8.355c0,0.263,0.059,0.451,0.16,0.567
	c0.102,0.116,0.232,0.204,0.406,0.248c0.174,0.043,0.349,0.058,0.551,0.058c0.189-0.015,0.377-0.015,0.552-0.044v0.507h-0.77
	c-0.376,0-0.696-0.086-0.986-0.261c-0.276-0.174-0.421-0.508-0.421-1.015v-1.712H18.23c-0.13,0.422-0.348,0.839-0.652,1.217
	c-0.304,0.394-0.667,0.741-1.117,1.047c-0.45,0.302-0.972,0.55-1.538,0.724c-0.581,0.175-1.204,0.261-1.886,0.261
	c-1.335,0-2.393-0.289-3.191-0.885c-0.799-0.579-1.205-1.467-1.205-2.641c0-0.812,0.131-1.464,0.392-1.973
	c0.261-0.492,0.609-0.885,1.031-1.16c0.42-0.277,0.913-0.48,1.45-0.581c0.552-0.116,1.089-0.188,1.64-0.217
	c0.899-0.059,1.683-0.102,2.321-0.146c0.652-0.043,1.175-0.13,1.595-0.262c0.421-0.129,0.726-0.318,0.915-0.58
	c0.188-0.26,0.29-0.638,0.29-1.131c0-0.392-0.029-0.798-0.102-1.22c-0.072-0.42-0.232-0.812-0.493-1.174
	c-0.261-0.363-0.653-0.654-1.161-0.885c-0.507-0.232-1.189-0.335-2.06-0.335c-1.379,0-2.452,0.335-3.221,1.017
	c-0.769,0.666-1.189,1.623-1.277,2.842H9.454C9.482,22.52,9.613,21.938,9.831,21.403 M18.23,24.478
	c-0.174,0.232-0.435,0.422-0.797,0.552c-0.363,0.13-0.77,0.232-1.219,0.289c-0.464,0.073-0.957,0.116-1.494,0.131
	c-0.537,0.015-1.06,0.045-1.566,0.072c-0.508,0.03-1.015,0.104-1.494,0.19c-0.479,0.087-0.915,0.261-1.292,0.507
	C9.99,26.467,9.701,26.8,9.469,27.234c-0.218,0.436-0.334,1.002-0.334,1.697c0,0.378,0.058,0.74,0.188,1.116
	c0.131,0.364,0.349,0.697,0.653,0.975c0.305,0.275,0.697,0.507,1.19,0.696c0.479,0.174,1.088,0.261,1.798,0.261
	c0.856,0,1.611-0.145,2.278-0.436c0.667-0.288,1.218-0.667,1.668-1.132c0.45-0.463,0.798-1.015,1.016-1.626
	c0.232-0.609,0.348-1.246,0.348-1.885v-2.423H18.23z M22.278,13.96v18.236h-0.507V13.96H22.278z M25.151,28.208
	c0.188,0.755,0.493,1.423,0.898,1.973c0.407,0.564,0.944,1,1.582,1.336c0.652,0.318,1.435,0.478,2.379,0.478
	c1.379,0,2.525-0.362,3.438-1.088c0.914-0.726,1.48-1.812,1.697-3.25h0.508c-0.188,1.538-0.798,2.712-1.812,3.568
	c-1.017,0.842-2.278,1.264-3.772,1.264c-1.015,0.012-1.901-0.146-2.612-0.482c-0.726-0.33-1.32-0.825-1.77-1.435
	c-0.464-0.622-0.797-1.349-1.015-2.189c-0.218-0.842-0.333-1.756-0.333-2.714c0-1.088,0.16-2.059,0.479-2.917
	c0.319-0.854,0.754-1.566,1.276-2.161c0.522-0.581,1.146-1.03,1.843-1.333c0.696-0.307,1.406-0.466,2.147-0.466
	c1.015,0,1.899,0.203,2.641,0.581c0.738,0.391,1.35,0.915,1.812,1.552c0.464,0.653,0.812,1.394,1.017,2.221
	c0.217,0.842,0.305,1.698,0.261,2.611H24.831C24.846,26.626,24.948,27.439,25.151,28.208z M34.958,22.941
	c-0.218-0.726-0.552-1.365-0.986-1.901c-0.435-0.551-0.973-0.971-1.624-1.292c-0.653-0.32-1.394-0.479-2.25-0.479
	c-0.711,0-1.378,0.131-2.001,0.407c-0.625,0.275-1.16,0.668-1.639,1.19c-0.464,0.521-0.842,1.146-1.132,1.871
	c-0.29,0.725-0.464,1.552-0.507,2.481h10.476C35.293,24.42,35.177,23.666,34.958,22.941z M46.753,19.066l-4.802,6.325l5.267,6.791
	h-0.639l-4.948-6.414l-4.933,6.414h-0.609l5.237-6.791l-4.771-6.325h0.665l4.41,5.949l4.527-5.949H46.753z"/>
</svg>
